<mxfile host="app.diagrams.net" modified="2024-04-23T07:06:02.666Z" agent="Mozilla/5.0 (Windows NT 10.0; Win64; x64) AppleWebKit/537.36 (KHTML, like Gecko) Chrome/124.0.0.0 Safari/537.36" etag="Y1RtpL6UJj8x92p6EZSd" version="24.2.8" type="device">
  <diagram name="Page-1" id="WCAnSGV_UoAGxaOJ7xLK">
    <mxGraphModel dx="1050" dy="609" grid="1" gridSize="10" guides="1" tooltips="1" connect="1" arrows="1" fold="1" page="1" pageScale="1" pageWidth="850" pageHeight="1100" background="#000000" math="0" shadow="0">
      <root>
        <mxCell id="0" />
        <mxCell id="1" parent="0" />
        <mxCell id="1wmA76lb959CnuCcKSCz-21" style="edgeStyle=orthogonalEdgeStyle;rounded=0;orthogonalLoop=1;jettySize=auto;html=1;exitX=0.5;exitY=1;exitDx=0;exitDy=0;exitPerimeter=0;entryX=0.5;entryY=0;entryDx=0;entryDy=0;strokeColor=#FFFFFF;strokeWidth=3;" parent="1" source="1wmA76lb959CnuCcKSCz-1" target="1wmA76lb959CnuCcKSCz-4" edge="1">
          <mxGeometry relative="1" as="geometry" />
        </mxCell>
        <mxCell id="1wmA76lb959CnuCcKSCz-1" value="&lt;span style=&quot;color: rgb(255, 255, 255); font-size: 16px; text-wrap: wrap;&quot;&gt;Execute Show Journal Function&lt;/span&gt;" style="verticalLabelPosition=middle;verticalAlign=middle;html=1;shape=mxgraph.flowchart.on-page_reference;fillColor=none;strokeColor=#FFFFFF;strokeWidth=10;labelPosition=center;align=center;fontSize=16;" parent="1" vertex="1">
          <mxGeometry x="370" y="10" width="110" height="110" as="geometry" />
        </mxCell>
        <mxCell id="1wmA76lb959CnuCcKSCz-4" value="&lt;div style=&quot;display: flex; justify-content: center; text-align: center; align-items: baseline; line-height: 1.25; margin-top: -2px;&quot;&gt;&lt;font style=&quot;font-size: 18px;&quot;&gt;&lt;span style=&quot;font-size: 17px;&quot;&gt;Show Journal Titles&lt;/span&gt;&lt;br&gt;&lt;/font&gt;&lt;/div&gt;" style="html=1;overflow=block;blockSpacing=1;whiteSpace=wrap;fontSize=13;spacing=3.8;strokeColor=#006EAF;rounded=1;absoluteArcSize=1;arcSize=9;fillColor=#1ba1e2;strokeWidth=NaN;lucidId=r1av457.JjQZ;fontColor=#ffffff;" parent="1" vertex="1">
          <mxGeometry x="351.46" y="160" width="147.36" height="90" as="geometry" />
        </mxCell>
        <mxCell id="1wmA76lb959CnuCcKSCz-5" style="edgeStyle=orthogonalEdgeStyle;rounded=0;orthogonalLoop=1;jettySize=auto;html=1;exitX=0.5;exitY=1;exitDx=0;exitDy=0;strokeColor=#005700;strokeWidth=3;fillColor=#008a00;entryX=0.5;entryY=0;entryDx=0;entryDy=0;" parent="1" source="1wmA76lb959CnuCcKSCz-17" target="o2_yryx7lJQIHPHiSZJ5-12" edge="1">
          <mxGeometry relative="1" as="geometry">
            <mxPoint x="421.14" y="502.0000000000002" as="sourcePoint" />
            <mxPoint x="280" y="740" as="targetPoint" />
          </mxGeometry>
        </mxCell>
        <mxCell id="1wmA76lb959CnuCcKSCz-26" value="&lt;span style=&quot;&quot;&gt;Choice Number 1&lt;/span&gt;" style="edgeLabel;html=1;align=center;verticalAlign=middle;resizable=0;points=[];fontColor=#FFFFFF;labelBackgroundColor=#000000;" parent="1wmA76lb959CnuCcKSCz-5" vertex="1" connectable="0">
          <mxGeometry x="-0.28" y="-5" relative="1" as="geometry">
            <mxPoint x="10" as="offset" />
          </mxGeometry>
        </mxCell>
        <mxCell id="o2_yryx7lJQIHPHiSZJ5-20" style="edgeStyle=orthogonalEdgeStyle;rounded=0;orthogonalLoop=1;jettySize=auto;html=1;exitX=0;exitY=0.5;exitDx=0;exitDy=0;entryX=0;entryY=0.5;entryDx=0;entryDy=0;strokeColor=#FFFFFF;strokeWidth=3;" edge="1" parent="1" source="1wmA76lb959CnuCcKSCz-14" target="o2_yryx7lJQIHPHiSZJ5-3">
          <mxGeometry relative="1" as="geometry">
            <Array as="points">
              <mxPoint x="310" y="985" />
              <mxPoint x="310" y="325" />
            </Array>
          </mxGeometry>
        </mxCell>
        <mxCell id="1wmA76lb959CnuCcKSCz-14" value="Show Selected Journal Details" style="html=1;overflow=block;blockSpacing=1;whiteSpace=wrap;fontSize=17;spacing=3.8;strokeColor=#006EAF;rounded=1;absoluteArcSize=1;arcSize=9;fillColor=#1ba1e2;strokeWidth=NaN;lucidId=xdbvFR-ZrNtJ;fontColor=#ffffff;" parent="1" vertex="1">
          <mxGeometry x="356.17999999999995" y="940" width="137" height="90" as="geometry" />
        </mxCell>
        <mxCell id="1wmA76lb959CnuCcKSCz-15" style="edgeStyle=orthogonalEdgeStyle;rounded=0;orthogonalLoop=1;jettySize=auto;html=1;entryX=0.5;entryY=0;entryDx=0;entryDy=0;strokeColor=#FFFFFF;strokeWidth=3;exitX=0.5;exitY=1;exitDx=0;exitDy=0;" parent="1" source="o2_yryx7lJQIHPHiSZJ5-3" target="o2_yryx7lJQIHPHiSZJ5-1" edge="1">
          <mxGeometry relative="1" as="geometry">
            <mxPoint x="336.46" y="390" as="sourcePoint" />
          </mxGeometry>
        </mxCell>
        <mxCell id="o2_yryx7lJQIHPHiSZJ5-13" value="" style="edgeStyle=orthogonalEdgeStyle;rounded=0;orthogonalLoop=1;jettySize=auto;html=1;" edge="1" parent="1" source="1wmA76lb959CnuCcKSCz-17" target="o2_yryx7lJQIHPHiSZJ5-1">
          <mxGeometry relative="1" as="geometry" />
        </mxCell>
        <mxCell id="1wmA76lb959CnuCcKSCz-17" value="&lt;font style=&quot;font-size: 14px;&quot;&gt;Deciding Back or&lt;br&gt;View Details&lt;/font&gt;" style="html=1;overflow=block;blockSpacing=1;whiteSpace=wrap;rhombus;fontSize=16.7;fontColor=#ffffff;spacing=3.8;strokeColor=#006EAF;rounded=1;absoluteArcSize=1;arcSize=9;fillColor=#1ba1e2;strokeWidth=NaN;lucidId=x_avSaIK2IV_;" parent="1" vertex="1">
          <mxGeometry x="344.03999999999996" y="530" width="162.2" height="122" as="geometry" />
        </mxCell>
        <mxCell id="1wmA76lb959CnuCcKSCz-25" value="&lt;span style=&quot;color: rgb(255, 255, 255); font-size: 17px; text-wrap: wrap;&quot;&gt;Main Menu&lt;/span&gt;" style="verticalLabelPosition=middle;verticalAlign=middle;html=1;shape=mxgraph.flowchart.on-page_reference;fillColor=#000000;strokeColor=#FFFFFF;strokeWidth=10;labelPosition=center;align=center;" parent="1" vertex="1">
          <mxGeometry x="660" y="536" width="110" height="110" as="geometry" />
        </mxCell>
        <mxCell id="1wmA76lb959CnuCcKSCz-27" style="edgeStyle=orthogonalEdgeStyle;rounded=0;orthogonalLoop=1;jettySize=auto;html=1;exitX=1;exitY=0.5;exitDx=0;exitDy=0;entryX=0;entryY=0.5;entryDx=0;entryDy=0;entryPerimeter=0;strokeColor=#FF0000;strokeWidth=3;" parent="1" source="1wmA76lb959CnuCcKSCz-17" target="1wmA76lb959CnuCcKSCz-25" edge="1">
          <mxGeometry relative="1" as="geometry" />
        </mxCell>
        <mxCell id="1wmA76lb959CnuCcKSCz-28" value="&lt;span style=&quot;&quot;&gt;Choice Number 0&lt;/span&gt;" style="edgeLabel;html=1;align=center;verticalAlign=middle;resizable=0;points=[];fontColor=#FFFFFF;labelBackgroundColor=#000000;" parent="1wmA76lb959CnuCcKSCz-27" vertex="1" connectable="0">
          <mxGeometry x="-0.1912" relative="1" as="geometry">
            <mxPoint x="7" as="offset" />
          </mxGeometry>
        </mxCell>
        <mxCell id="o2_yryx7lJQIHPHiSZJ5-4" style="edgeStyle=orthogonalEdgeStyle;rounded=0;orthogonalLoop=1;jettySize=auto;html=1;exitX=0.5;exitY=1;exitDx=0;exitDy=0;entryX=0.5;entryY=0;entryDx=0;entryDy=0;fillColor=#008a00;strokeColor=#005700;strokeWidth=3;" edge="1" parent="1" source="o2_yryx7lJQIHPHiSZJ5-1" target="1wmA76lb959CnuCcKSCz-17">
          <mxGeometry relative="1" as="geometry" />
        </mxCell>
        <mxCell id="o2_yryx7lJQIHPHiSZJ5-7" value="&lt;span style=&quot;color: rgb(255, 255, 255); background-color: rgb(0, 0, 0);&quot;&gt;Valid Input&lt;/span&gt;" style="edgeLabel;html=1;align=center;verticalAlign=middle;resizable=0;points=[];" vertex="1" connectable="0" parent="o2_yryx7lJQIHPHiSZJ5-4">
          <mxGeometry x="-0.344" y="2" relative="1" as="geometry">
            <mxPoint x="-2" y="1" as="offset" />
          </mxGeometry>
        </mxCell>
        <mxCell id="o2_yryx7lJQIHPHiSZJ5-5" style="edgeStyle=orthogonalEdgeStyle;rounded=0;orthogonalLoop=1;jettySize=auto;html=1;exitX=1;exitY=0.5;exitDx=0;exitDy=0;entryX=1;entryY=0.5;entryDx=0;entryDy=0;strokeColor=#FF0000;strokeWidth=3;" edge="1" parent="1" source="o2_yryx7lJQIHPHiSZJ5-1" target="o2_yryx7lJQIHPHiSZJ5-3">
          <mxGeometry relative="1" as="geometry">
            <Array as="points">
              <mxPoint x="540.46" y="447" />
              <mxPoint x="540.46" y="325" />
            </Array>
          </mxGeometry>
        </mxCell>
        <mxCell id="o2_yryx7lJQIHPHiSZJ5-6" value="Invalid Input" style="edgeLabel;html=1;align=center;verticalAlign=middle;resizable=0;points=[];fontColor=#FFFFFF;labelBackgroundColor=#000000;" vertex="1" connectable="0" parent="o2_yryx7lJQIHPHiSZJ5-5">
          <mxGeometry x="0.0729" relative="1" as="geometry">
            <mxPoint as="offset" />
          </mxGeometry>
        </mxCell>
        <mxCell id="o2_yryx7lJQIHPHiSZJ5-1" value="&lt;font style=&quot;font-size: 12px;&quot;&gt;Input Check&lt;/font&gt;" style="html=1;overflow=block;blockSpacing=1;whiteSpace=wrap;rhombus;fontSize=16.7;fontColor=#ffffff;spacing=3.8;strokeColor=#006EAF;rounded=1;absoluteArcSize=1;arcSize=9;fillColor=#1ba1e2;strokeWidth=NaN;lucidId=x_avSaIK2IV_;" vertex="1" parent="1">
          <mxGeometry x="376.40999999999997" y="410" width="98.38" height="74" as="geometry" />
        </mxCell>
        <mxCell id="o2_yryx7lJQIHPHiSZJ5-3" value="&lt;div style=&quot;display: flex; justify-content: center; text-align: center; align-items: baseline; line-height: 1.25; margin-top: -2px;&quot;&gt;&lt;font style=&quot;font-size: 18px;&quot;&gt;&lt;span style=&quot;font-size: 17px;&quot;&gt;Input Choice Option&lt;/span&gt;&lt;br&gt;&lt;/font&gt;&lt;/div&gt;" style="html=1;overflow=block;blockSpacing=1;whiteSpace=wrap;fontSize=13;spacing=3.8;strokeColor=#006EAF;rounded=1;absoluteArcSize=1;arcSize=9;fillColor=#1ba1e2;strokeWidth=NaN;lucidId=r1av457.JjQZ;fontColor=#ffffff;" vertex="1" parent="1">
          <mxGeometry x="351.46" y="280" width="147.36" height="90" as="geometry" />
        </mxCell>
        <mxCell id="o2_yryx7lJQIHPHiSZJ5-10" style="edgeStyle=orthogonalEdgeStyle;rounded=0;orthogonalLoop=1;jettySize=auto;html=1;exitX=0.5;exitY=1;exitDx=0;exitDy=0;entryX=0.5;entryY=0;entryDx=0;entryDy=0;strokeColor=#FFFFFF;strokeWidth=3;" edge="1" parent="1" source="1wmA76lb959CnuCcKSCz-4" target="o2_yryx7lJQIHPHiSZJ5-3">
          <mxGeometry relative="1" as="geometry">
            <mxPoint x="425.1400000000001" y="380" as="sourcePoint" />
          </mxGeometry>
        </mxCell>
        <mxCell id="o2_yryx7lJQIHPHiSZJ5-15" style="edgeStyle=orthogonalEdgeStyle;rounded=0;orthogonalLoop=1;jettySize=auto;html=1;exitX=0.5;exitY=1;exitDx=0;exitDy=0;entryX=0.5;entryY=0;entryDx=0;entryDy=0;strokeColor=#FFFFFF;strokeWidth=3;" edge="1" parent="1" source="o2_yryx7lJQIHPHiSZJ5-12" target="o2_yryx7lJQIHPHiSZJ5-14">
          <mxGeometry relative="1" as="geometry" />
        </mxCell>
        <mxCell id="o2_yryx7lJQIHPHiSZJ5-12" value="&lt;div style=&quot;display: flex; justify-content: center; text-align: center; align-items: baseline; line-height: 1.25; margin-top: -2px;&quot;&gt;&lt;font style=&quot;font-size: 18px;&quot;&gt;&lt;span style=&quot;font-size: 17px;&quot;&gt;Input Journal Choice&lt;/span&gt;&lt;br&gt;&lt;/font&gt;&lt;/div&gt;" style="html=1;overflow=block;blockSpacing=1;whiteSpace=wrap;fontSize=13;spacing=3.8;strokeColor=#006EAF;rounded=1;absoluteArcSize=1;arcSize=9;fillColor=#1ba1e2;strokeWidth=NaN;lucidId=r1av457.JjQZ;fontColor=#ffffff;" vertex="1" parent="1">
          <mxGeometry x="351" y="700" width="147.36" height="90" as="geometry" />
        </mxCell>
        <mxCell id="o2_yryx7lJQIHPHiSZJ5-16" style="edgeStyle=orthogonalEdgeStyle;rounded=0;orthogonalLoop=1;jettySize=auto;html=1;exitX=1;exitY=0.5;exitDx=0;exitDy=0;entryX=1;entryY=0.5;entryDx=0;entryDy=0;strokeColor=#FF0000;strokeWidth=3;" edge="1" parent="1" source="o2_yryx7lJQIHPHiSZJ5-14" target="o2_yryx7lJQIHPHiSZJ5-12">
          <mxGeometry relative="1" as="geometry">
            <Array as="points">
              <mxPoint x="530" y="857" />
              <mxPoint x="530" y="745" />
            </Array>
          </mxGeometry>
        </mxCell>
        <mxCell id="o2_yryx7lJQIHPHiSZJ5-17" value="Invalid Input" style="edgeLabel;html=1;align=center;verticalAlign=middle;resizable=0;points=[];fontColor=#FFFFFF;labelBackgroundColor=#000000;" vertex="1" connectable="0" parent="o2_yryx7lJQIHPHiSZJ5-16">
          <mxGeometry x="0.1527" relative="1" as="geometry">
            <mxPoint y="12" as="offset" />
          </mxGeometry>
        </mxCell>
        <mxCell id="o2_yryx7lJQIHPHiSZJ5-18" style="edgeStyle=orthogonalEdgeStyle;rounded=0;orthogonalLoop=1;jettySize=auto;html=1;exitX=0.5;exitY=1;exitDx=0;exitDy=0;entryX=0.5;entryY=0;entryDx=0;entryDy=0;fillColor=#008a00;strokeColor=#005700;strokeWidth=3;" edge="1" parent="1" source="o2_yryx7lJQIHPHiSZJ5-14" target="1wmA76lb959CnuCcKSCz-14">
          <mxGeometry relative="1" as="geometry">
            <mxPoint x="424.67999999999984" y="940" as="targetPoint" />
          </mxGeometry>
        </mxCell>
        <mxCell id="o2_yryx7lJQIHPHiSZJ5-19" value="Valid Input" style="edgeLabel;html=1;align=center;verticalAlign=middle;resizable=0;points=[];fontColor=#FFFFFF;labelBackgroundColor=#000000;" vertex="1" connectable="0" parent="o2_yryx7lJQIHPHiSZJ5-18">
          <mxGeometry x="-0.4051" y="-1" relative="1" as="geometry">
            <mxPoint as="offset" />
          </mxGeometry>
        </mxCell>
        <mxCell id="o2_yryx7lJQIHPHiSZJ5-14" value="&lt;font style=&quot;font-size: 12px;&quot;&gt;Input Check&lt;/font&gt;" style="html=1;overflow=block;blockSpacing=1;whiteSpace=wrap;rhombus;fontSize=16.7;fontColor=#ffffff;spacing=3.8;strokeColor=#006EAF;rounded=1;absoluteArcSize=1;arcSize=9;fillColor=#1ba1e2;strokeWidth=NaN;lucidId=x_avSaIK2IV_;" vertex="1" parent="1">
          <mxGeometry x="375.95" y="820" width="98.38" height="74" as="geometry" />
        </mxCell>
      </root>
    </mxGraphModel>
  </diagram>
</mxfile>
